<svg xmlns="http://www.w3.org/2000/svg" xmlns:xlink="http://www.w3.org/1999/xlink" width="157" height="58" viewBox="0 0 157 58">
  <defs>
    <clipPath id="clip-mtg_random_cards">
      <rect width="157" height="58"/>
    </clipPath>
  </defs>
  <g id="mtg_random_cards" clip-path="url(#clip-mtg_random_cards)">
    <g id="Group_3" data-name="Group 3" transform="translate(-68 -24)">
      <path id="Path_12" data-name="Path 12" d="M716.653,562.007s2.031-11.513,6.974-19.233,9.733-3.123,9.733-3.123l3.931-21.337s-6.424,14.886-11.367,11.773-9.151-25.918-9.151-25.918-4.148,22.8-9.657,25.918c-7.493,2.989-11.635-11.773-11.635-11.773l3.486,21.337s4.591-4.6,10.1,3.123S716.653,562.007,716.653,562.007Z" transform="translate(-627.964 -480.169)" fill="#c8371b"/>
      <g id="Group_2" data-name="Group 2" transform="translate(3.889 7)">
        <path id="Path_9" data-name="Path 9" d="M6.882-92.92H19.133q.6,1.353,1.036,2.28t.669,1.391l5.011,9.506,6.06-10.086a16.665,16.665,0,0,0,.826-1.623,10.117,10.117,0,0,0,.512-1.449l12.041-.019v3.053H42.218L44.711-68.98h2.361v3.014H30.886V-68.98h3.122l-1.338-15.3A68.076,68.076,0,0,0,27.947-74.7a42.726,42.726,0,0,0-2.492,8.733h-5.4a48.086,48.086,0,0,0-2.282-8.878,70.031,70.031,0,0,0-4.224-9.439l-2.1,15.3h3.279v3.014H4.416V-68.98H6.567L9.505-89.867H6.882Zm43.836-.985h3.7l.21.985h20.8l.157-.985h3.7l.761,8.231H76.505a4.146,4.146,0,0,0-1.666-2.734,6.269,6.269,0,0,0-3.607-.9h-.656V-68.98h3.174v3.014h-17.5V-68.98h3.174V-89.307h-.656a6.2,6.2,0,0,0-3.568.889,4.141,4.141,0,0,0-1.653,2.744H49.957ZM106.49-79.337h-6.244v-2.9h12.3a15.738,15.738,0,0,0,2.02-.126,13.917,13.917,0,0,0,1.889-.377l1.469,1.816a4.059,4.059,0,0,0-1.049,1.169,2.59,2.59,0,0,0-.341,1.285v19.5l-5.378-9.84a21.751,21.751,0,0,1-5.758,2.541,24.058,24.058,0,0,1-6.493.86q-7.267,0-11.674-3.478a11.177,11.177,0,0,1-4.407-9.236,12.722,12.722,0,0,1,1.312-5.71A14.16,14.16,0,0,1,88-88.553a20.2,20.2,0,0,1,6.571-3.594,24.557,24.557,0,0,1,7.883-1.275,20.407,20.407,0,0,1,4.984.6,17.675,17.675,0,0,1,4.46,1.778l2.1-.966,2.2,2.454-11.28,5.468-2.1-2.145a2.149,2.149,0,0,0,.564-.647,1.488,1.488,0,0,0,.2-.725,1.94,1.94,0,0,0-.984-1.633,4.275,4.275,0,0,0-2.453-.667,6.077,6.077,0,0,0-4.788,2.067,8.052,8.052,0,0,0-1.823,5.526,12.113,12.113,0,0,0,3.082,8.434,9.864,9.864,0,0,0,7.621,3.41q.735-.019,1.259-.058a6.036,6.036,0,0,0,1-.155Z" transform="translate(102.752 119.905)" fill="#e8e9e9"/>
        <path id="Path_13" data-name="Path 13" d="M5.214-23.817v3.543H5.59a1.583,1.583,0,0,0,1.2-.491,1.794,1.794,0,0,0,.465-1.287,1.712,1.712,0,0,0-.493-1.284,1.818,1.818,0,0,0-1.327-.482Zm-3.3-1.029H5.889a5.038,5.038,0,0,1,2.894.736,2.283,2.283,0,0,1,1.073,1.975,2.271,2.271,0,0,1-.481,1.421,2.908,2.908,0,0,1-1.347.943A1.668,1.668,0,0,1,8.3-19.5a2.552,2.552,0,0,1,.251.386l.968,1.688h.548v.934H6.952A5.153,5.153,0,0,0,6.831-17a3.106,3.106,0,0,0-.159-.428L5.761-19.3H5.214v1.873h.624v.934H1.916v-.934h.637V-23.9H1.916Zm12.775,2.113-1.133,3.088h2.228Zm-.471-2.113h2.375l2.738,7.415H19.8v.934h-4v-.934h.758l-.382-1.113H13.15l-.4,1.113h.764v.934H10.934v-.934h.573Zm6.484,0h2.954l3.209,4.387V-23.9H26.23v-.946h2.438v.946h-.624v7.4H26.466q-.121-.251-.28-.521t-.376-.569l-3.3-4.536v4.692h.758v.934H20.7v-.934h.637V-23.9H20.7Zm12.838,1.119V-17.6h.274a1.5,1.5,0,0,0,1.356-.826,4.667,4.667,0,0,0,.484-2.34,4.105,4.105,0,0,0-.484-2.223,1.613,1.613,0,0,0-1.445-.739Zm-3.349-1.119h3.584a5.2,5.2,0,0,1,3.508,1.086,3.745,3.745,0,0,1,1.261,3,4.5,4.5,0,0,1-.388,1.93,3.965,3.965,0,0,1-1.2,1.457,3.84,3.84,0,0,1-1.372.676,8.256,8.256,0,0,1-2.053.2H30.193v-.934h.637V-23.9h-.637Zm13.335.922a1.081,1.081,0,0,0-.977.539,3,3,0,0,0-.334,1.568,6.629,6.629,0,0,0,.188,1.529,7.248,7.248,0,0,0,.538,1.511,3.114,3.114,0,0,0,.735,1.026,1.318,1.318,0,0,0,.869.344,1.073,1.073,0,0,0,.974-.539,3.053,3.053,0,0,0,.331-1.58,6.63,6.63,0,0,0-.188-1.529,7.483,7.483,0,0,0-.532-1.511A3.069,3.069,0,0,0,44.4-23.58,1.325,1.325,0,0,0,43.528-23.924ZM44.037-25a4.546,4.546,0,0,1,3.26,1.227,4.106,4.106,0,0,1,1.292,3.112A4.1,4.1,0,0,1,47.3-17.548a4.553,4.553,0,0,1-3.26,1.224,4.566,4.566,0,0,1-3.269-1.227,4.1,4.1,0,0,1-1.3-3.112,4.1,4.1,0,0,1,1.3-3.112A4.566,4.566,0,0,1,44.037-25Zm6.1.156h2.973q.146.419.251.706t.162.431l1.216,2.944,1.471-3.124q.121-.269.2-.5a3.744,3.744,0,0,0,.124-.449l2.922-.006v.946h-.745l.6,6.469h.573v.934H55.965v-.934h.758l-.325-4.74A23.923,23.923,0,0,0,55.252-19.2a16.152,16.152,0,0,0-.6,2.705H53.336a18.319,18.319,0,0,0-.554-2.75,25.051,25.051,0,0,0-1.025-2.923l-.509,4.74h.8v.934h-2.5v-.934h.522l.713-6.469H50.14Zm20.812.688.414-.317.548.712L69.15-21.656l-.535-.6a.9.9,0,0,0,.232-.3.859.859,0,0,0,.08-.368.872.872,0,0,0-.239-.619.783.783,0,0,0-.6-.254,1.014,1.014,0,0,0-.891.518,2.57,2.57,0,0,0-.331,1.4,4.291,4.291,0,0,0,.774,2.606,2.307,2.307,0,0,0,1.92,1.056,2.534,2.534,0,0,0,1.086-.23,3.072,3.072,0,0,0,.939-.709l.675.575a5.5,5.5,0,0,1-1.729,1.709,4.123,4.123,0,0,1-2.13.56,3.881,3.881,0,0,1-2.881-1.134,3.946,3.946,0,0,1-1.124-2.9,4.6,4.6,0,0,1,.3-1.655,4.494,4.494,0,0,1,.882-1.421,4.792,4.792,0,0,1,1.515-1.161A3.984,3.984,0,0,1,68.838-25a3.2,3.2,0,0,1,1.191.212A2.5,2.5,0,0,1,70.952-24.158ZM76.1-22.734l-1.133,3.088h2.228Zm-.471-2.113H78l2.738,7.415h.471v.934h-4v-.934h.758l-.382-1.113H74.558l-.4,1.113h.764v.934H72.343v-.934h.573Zm9.782,1.029v3.543h.376a1.583,1.583,0,0,0,1.2-.491,1.794,1.794,0,0,0,.465-1.287,1.712,1.712,0,0,0-.493-1.284,1.818,1.818,0,0,0-1.327-.482Zm-3.3-1.029h3.973a5.038,5.038,0,0,1,2.894.736,2.283,2.283,0,0,1,1.073,1.975,2.271,2.271,0,0,1-.481,1.421,2.908,2.908,0,0,1-1.347.943,1.668,1.668,0,0,1,.271.266,2.552,2.552,0,0,1,.251.386l.968,1.688h.548v.934H87.148A5.157,5.157,0,0,0,87.027-17a3.108,3.108,0,0,0-.159-.428l-.91-1.873H85.41v1.873h.624v.934H82.112v-.934h.637V-23.9h-.637Zm12.775,1.119V-17.6h.274a1.5,1.5,0,0,0,1.356-.826A4.667,4.667,0,0,0,97-20.765a4.105,4.105,0,0,0-.484-2.223,1.613,1.613,0,0,0-1.445-.739Zm-3.349-1.119h3.584A5.2,5.2,0,0,1,98.63-23.76a3.745,3.745,0,0,1,1.261,3,4.5,4.5,0,0,1-.388,1.93,3.964,3.964,0,0,1-1.2,1.457,3.84,3.84,0,0,1-1.372.676,8.256,8.256,0,0,1-2.053.2H91.538v-.934h.637V-23.9h-.637ZM107-24.4l.3-.389.758.437-1.407,2.083a12.878,12.878,0,0,0-1.608-1.134,2.335,2.335,0,0,0-1.054-.374.848.848,0,0,0-.516.15.446.446,0,0,0-.2.371.662.662,0,0,0,.328.53,5.116,5.116,0,0,0,1.162.536l.452.156a7.331,7.331,0,0,1,2.171,1.029,2.2,2.2,0,0,1,.522.709,1.993,1.993,0,0,1,.178.835A2.824,2.824,0,0,1,107-17.249a3.893,3.893,0,0,1-2.617.925,5.877,5.877,0,0,1-2.015-.356,6.723,6.723,0,0,1-1.862-1.044l1.515-2.059a10.419,10.419,0,0,0,1.888,1.55,3.008,3.008,0,0,0,1.512.509,1.2,1.2,0,0,0,.723-.2.62.62,0,0,0,.271-.527.5.5,0,0,0-.226-.389,3.231,3.231,0,0,0-.767-.395q-.382-.156-1.375-.494a8.75,8.75,0,0,1-1.439-.6,2.56,2.56,0,0,1-.91-.826,1.919,1.919,0,0,1-.312-1.059,2.522,2.522,0,0,1,1.006-1.948,3.481,3.481,0,0,1,2.33-.859,4.068,4.068,0,0,1,1.054.15A7.637,7.637,0,0,1,107-24.4Z" transform="translate(105 82.86)" fill="#e8e9e9"/>
      </g>
    </g>
  </g>
</svg>
